<?xml version="1.0" encoding="utf-8"?>
<!-- Generator: Adobe Illustrator 26.4.1, SVG Export Plug-In . SVG Version: 6.00 Build 0)  -->
<svg version="1.1" id="_圖層_2" xmlns="http://www.w3.org/2000/svg" xmlns:xlink="http://www.w3.org/1999/xlink" x="0px" y="0px"
	 viewBox="0 0 1197.7 258.6" style="enable-background:new 0 0 1197.7 258.6;" xml:space="preserve">
<style type="text/css">
	.st0{fill:#FFFFFF;}
	.st1{fill-rule:evenodd;clip-rule:evenodd;fill:#FFFFFF;}
	.st2{fill:url(#SVGID_1_);}
</style>
<g>
	<path class="st0" d="M746.7,234.9v20.5c0,0.8-0.2,1.4-0.5,1.7c-0.3,0.3-0.9,0.4-1.8,0.4h-4.1c-0.9,0-1.5-0.1-1.8-0.4
		c-0.3-0.2-0.5-0.8-0.5-1.6v-46.1c0-0.8,0.2-1.4,0.5-1.7c0.3-0.3,0.9-0.4,1.8-0.4h26.2c0.8,0,1.4,0.1,1.7,0.5
		c0.3,0.3,0.4,0.9,0.4,1.8v3.1c0,0.9-0.1,1.5-0.4,1.8c-0.3,0.3-0.8,0.5-1.7,0.5h-19.8v12.4h18c0.8,0,1.4,0.1,1.7,0.5
		c0.3,0.3,0.4,0.9,0.4,1.8v3.1c0,0.9-0.1,1.5-0.4,1.8s-0.8,0.5-1.7,0.5L746.7,234.9L746.7,234.9z"/>
	<path class="st0" d="M795.1,206.2c4.2,0,7.7,0.8,10.5,2.4c2.8,1.6,4.9,4,6.3,7.2c0.6,1.4,1,2.9,1.3,4.6c0.2,1.7,0.3,3.9,0.3,6.6
		v10.3c0,2.4-0.1,4.6-0.4,6.3s-0.7,3.4-1.2,4.8c-1.4,3.4-3.5,5.9-6.3,7.7c-2.8,1.7-6.4,2.6-10.5,2.6s-7.7-0.8-10.5-2.4
		c-2.8-1.6-5-4-6.3-7.2c-0.6-1.4-1-2.9-1.3-4.6s-0.3-3.9-0.3-6.6v-10.3c0-2.4,0.1-4.6,0.4-6.3s0.7-3.4,1.2-4.8
		c1.4-3.4,3.5-5.9,6.3-7.7C787.4,207,790.9,206.2,795.1,206.2z M795.1,213.7c-3.5,0-6,1-7.4,3s-2.2,5.2-2.2,9.8v11.8
		c0,4.6,0.7,7.8,2.2,9.8c1.5,2,4,3,7.4,3s6-1,7.4-3s2.2-5.2,2.2-9.8v-11.8c0-4.6-0.7-7.8-2.2-9.8S798.5,213.7,795.1,213.7z"/>
	<path class="st0" d="M832.3,237.9v17.6c0,0.8-0.1,1.3-0.4,1.6c-0.3,0.3-0.9,0.4-1.8,0.4h-4c-0.9,0-1.5-0.1-1.8-0.4
		s-0.4-0.8-0.4-1.6v-46.1c0-0.8,0.1-1.3,0.4-1.6c0.3-0.3,0.9-0.4,1.8-0.4h15.1c5.6,0,9.7,1.2,12.3,3.5c2.6,2.3,3.9,6.1,3.9,11.2v1.3
		c0,7.1-2.8,11.6-8.5,13.5l10.5,18.6c0.2,0.4,0.3,0.7,0.3,0.9c0,0.8-0.6,1.1-1.8,1.1h-5.3c-0.8,0-1.4-0.1-1.7-0.4
		c-0.3-0.2-0.8-0.8-1.2-1.6l-9.5-17.6L832.3,237.9L832.3,237.9z M832.3,230.5h8.8c2.7,0,4.7-0.6,5.8-1.7c1.1-1.1,1.7-3,1.7-5.7v-1
		c0-2.8-0.5-4.8-1.7-5.9c-1.1-1.1-3-1.7-5.8-1.7h-8.8L832.3,230.5L832.3,230.5z"/>
	<path class="st0" d="M886.2,257.5c-0.9,0-1.5-0.1-1.8-0.4c-0.3-0.2-0.5-0.8-0.5-1.6v-46.1c0-0.8,0.2-1.4,0.5-1.7
		c0.3-0.3,0.9-0.4,1.8-0.4h16.2c5,0,8.8,1.1,11.4,3.2c2.6,2.1,3.9,5.3,3.9,9.5v0.9c0,2.6-0.7,4.8-1.9,6.6s-2.9,3-4.9,3.5
		c2.2,0.6,4,1.8,5.4,3.8s2.1,4.4,2.1,7.1v1.1c0,5.2-1.5,8.9-4.5,11.1c-3,2.2-7.3,3.2-12.9,3.2L886.2,257.5L886.2,257.5z
		 M892.4,227.7h9.5c2.4,0,4.2-0.5,5.3-1.4s1.7-2.5,1.7-4.6v-0.9c0-2.1-0.6-3.7-1.8-4.6c-1.2-1-3.2-1.5-5.8-1.5h-8.9L892.4,227.7
		L892.4,227.7z M892.4,250.1h8.9c2.6,0,4.6-0.5,6-1.6c1.4-1.1,2.2-2.9,2.2-5.4v-1.4c0-2.2-0.6-3.9-1.8-5.1c-1.2-1.2-3-1.9-5.3-1.9
		h-9.9L892.4,250.1L892.4,250.1z"/>
	<path class="st0" d="M963.2,240c0,6.2-1.5,10.8-4.4,13.9c-3,3.1-7.3,4.7-13,4.7h-0.6c-5.7,0-10-1.6-13-4.7c-3-3.1-4.4-7.8-4.4-13.9
		v-30.7c0-0.8,0.1-1.3,0.4-1.6c0.3-0.3,0.9-0.4,1.8-0.4h4.1c0.9,0,1.5,0.1,1.8,0.4s0.4,0.8,0.4,1.6v30.6c0,7.2,2.9,10.9,8.7,10.9
		h0.8c5.8,0,8.7-3.6,8.7-10.9v-30.6c0-0.8,0.1-1.3,0.4-1.6c0.3-0.3,0.9-0.4,1.8-0.4h4.1c0.9,0,1.5,0.1,1.8,0.4s0.4,0.8,0.4,1.6
		L963.2,240L963.2,240z"/>
	<path class="st0" d="M980.6,245.2c0.4,2,1.3,3.5,2.8,4.6c1.4,1,3.4,1.5,6,1.5c3,0,5.1-0.5,6.4-1.6c1.3-1.1,2-2.8,2-5.2
		c0-1.9-0.5-3.4-1.6-4.6s-2.8-2.2-5.2-2.9l-7.5-2.3c-3.5-1.1-6.2-2.8-8-5c-1.9-2.2-2.8-4.9-2.8-8V221c0-4.7,1.5-8.3,4.5-10.9
		c3-2.6,7.2-3.9,12.7-3.9c5.9,0,10.3,1.6,13.2,4.7c2,2.3,3,5,3,8.2c0,0.8-0.2,1.3-0.5,1.5c-0.3,0.3-0.9,0.4-1.8,0.4h-4
		c-0.9,0-1.5-0.1-1.8-0.4c-0.3-0.2-0.5-0.7-0.6-1.4c-0.4-3.9-3.2-5.8-8.2-5.8s-7.8,2.3-7.8,7c0,0.9,0.1,1.8,0.3,2.5
		c0.2,0.7,0.6,1.3,1.2,1.9s1.3,1,2.2,1.5c0.9,0.4,2,0.9,3.4,1.3l7.5,2.3c3.6,1.1,6.2,2.8,8,5.1s2.6,5.2,2.6,8.5v0.9
		c0,4.6-1.5,8.1-4.4,10.5c-3,2.5-7.2,3.7-12.5,3.7c-6.4,0-11.1-1.5-14-4.4c-1.2-1.2-2.1-2.6-2.7-4.1c-0.6-1.5-1-3.1-1-4.7
		c0-0.8,0.2-1.3,0.5-1.5s0.9-0.4,1.8-0.4h4c0.8,0,1.4,0.1,1.7,0.4C980.2,244,980.5,244.5,980.6,245.2L980.6,245.2z"/>
	<path class="st0" d="M1024.5,255.4c0,0.8-0.2,1.4-0.5,1.6c-0.3,0.3-0.9,0.4-1.8,0.4h-4.1c-0.9,0-1.5-0.1-1.8-0.4
		c-0.3-0.2-0.5-0.8-0.5-1.6v-46.1c0-0.8,0.2-1.4,0.5-1.7c0.3-0.3,0.9-0.4,1.8-0.4h4.1c0.9,0,1.5,0.1,1.8,0.4
		c0.3,0.3,0.5,0.8,0.5,1.7V255.4z"/>
	<path class="st0" d="M1044.5,223.6v31.9c0,0.8-0.2,1.4-0.5,1.6c-0.3,0.3-0.9,0.4-1.8,0.4h-3.9c-0.9,0-1.5-0.1-1.8-0.4
		c-0.3-0.2-0.5-0.8-0.5-1.6v-46.1c0-0.8,0.2-1.4,0.5-1.7c0.3-0.3,0.9-0.4,1.8-0.4h4.1c0.9,0,1.5,0.1,1.9,0.3
		c0.4,0.2,0.8,0.8,1.3,1.7l16.8,31.9v-31.9c0-0.8,0.2-1.4,0.5-1.7c0.3-0.3,0.9-0.4,1.8-0.4h3.9c0.9,0,1.5,0.1,1.8,0.4
		s0.5,0.8,0.5,1.7v46.1c0,0.8-0.2,1.4-0.5,1.6c-0.3,0.3-0.9,0.4-1.8,0.4h-4.1c-0.9,0-1.5-0.1-1.9-0.3c-0.4-0.2-0.8-0.8-1.3-1.7
		L1044.5,223.6z"/>
	<path class="st0" d="M1113.3,255.2c0,0.9-0.1,1.5-0.4,1.8s-0.8,0.5-1.7,0.5h-26.6c-0.9,0-1.5-0.1-1.8-0.4c-0.3-0.2-0.5-0.8-0.5-1.6
		v-46.1c0-0.8,0.2-1.4,0.5-1.7c0.3-0.3,0.9-0.4,1.8-0.4h26.3c0.8,0,1.4,0.1,1.7,0.5c0.3,0.3,0.4,0.9,0.4,1.8v3.1
		c0,0.9-0.1,1.5-0.4,1.8c-0.3,0.3-0.8,0.5-1.7,0.5h-19.9v13h18.1c0.8,0,1.4,0.1,1.7,0.5c0.3,0.3,0.4,0.9,0.4,1.8v3.1
		c0,0.9-0.1,1.5-0.4,1.8s-0.8,0.5-1.7,0.5h-18.1v14.4h20.2c0.8,0,1.4,0.1,1.7,0.5c0.3,0.3,0.4,0.9,0.4,1.8L1113.3,255.2
		L1113.3,255.2z"/>
	<path class="st0" d="M1130,245.2c0.4,2,1.3,3.5,2.8,4.6c1.4,1,3.4,1.5,6,1.5c3,0,5.1-0.5,6.4-1.6c1.3-1.1,2-2.8,2-5.2
		c0-1.9-0.5-3.4-1.6-4.6s-2.8-2.2-5.2-2.9l-7.5-2.3c-3.5-1.1-6.2-2.8-8-5c-1.9-2.2-2.8-4.9-2.8-8V221c0-4.7,1.5-8.3,4.5-10.9
		c3-2.6,7.2-3.9,12.7-3.9c5.9,0,10.3,1.6,13.2,4.7c2,2.3,3,5,3,8.2c0,0.8-0.2,1.3-0.5,1.5c-0.3,0.3-0.9,0.4-1.8,0.4h-4
		c-0.9,0-1.5-0.1-1.8-0.4c-0.3-0.2-0.5-0.7-0.6-1.4c-0.4-3.9-3.2-5.8-8.2-5.8s-7.8,2.3-7.8,7c0,0.9,0.1,1.8,0.3,2.5
		c0.2,0.7,0.6,1.3,1.2,1.9c0.6,0.5,1.3,1,2.2,1.5c0.9,0.4,2.1,0.9,3.4,1.3l7.5,2.3c3.6,1.1,6.2,2.8,8,5.1s2.6,5.2,2.6,8.5v0.9
		c0,4.6-1.5,8.1-4.4,10.5c-3,2.5-7.2,3.7-12.6,3.7c-6.4,0-11.1-1.5-14-4.4c-1.2-1.2-2.1-2.6-2.7-4.1c-0.6-1.5-0.9-3.1-0.9-4.7
		c0-0.8,0.2-1.3,0.5-1.5s0.9-0.4,1.8-0.4h3.9c0.8,0,1.4,0.1,1.7,0.4C1129.6,244,1129.8,244.5,1130,245.2L1130,245.2z"/>
	<path class="st0" d="M1171.6,245.2c0.4,2,1.3,3.5,2.8,4.6c1.4,1,3.4,1.5,6,1.5c3,0,5.1-0.5,6.4-1.6c1.3-1.1,2-2.8,2-5.2
		c0-1.9-0.5-3.4-1.6-4.6s-2.8-2.2-5.2-2.9l-7.5-2.3c-3.5-1.1-6.2-2.8-8-5c-1.9-2.2-2.8-4.9-2.8-8V221c0-4.7,1.5-8.3,4.5-10.9
		c3-2.6,7.2-3.9,12.7-3.9c5.9,0,10.3,1.6,13.2,4.7c2,2.3,3,5,3,8.2c0,0.8-0.2,1.3-0.5,1.5c-0.3,0.3-0.9,0.4-1.8,0.4h-4
		c-0.9,0-1.5-0.1-1.8-0.4c-0.3-0.2-0.5-0.7-0.6-1.4c-0.4-3.9-3.2-5.8-8.2-5.8s-7.8,2.3-7.8,7c0,0.9,0.1,1.8,0.3,2.5
		c0.2,0.7,0.6,1.3,1.2,1.9c0.6,0.5,1.3,1,2.2,1.5c0.9,0.4,2.1,0.9,3.4,1.3l7.5,2.3c3.6,1.1,6.2,2.8,8,5.1s2.6,5.2,2.6,8.5v0.9
		c0,4.6-1.5,8.1-4.4,10.5c-3,2.5-7.2,3.7-12.6,3.7c-6.4,0-11.1-1.5-14-4.4c-1.2-1.2-2.1-2.6-2.7-4.1c-0.6-1.5-0.9-3.1-0.9-4.7
		c0-0.8,0.2-1.3,0.5-1.5s0.9-0.4,1.8-0.4h3.9c0.8,0,1.4,0.1,1.7,0.4C1171.3,244,1171.5,244.5,1171.6,245.2L1171.6,245.2z"/>
</g>
<g id="Group-19-Copy">
	<g id="Group-3">
		<g>
			<path id="Fill-1" class="st1" d="M643.7,50.7l-48.6,95.5c-0.8,1.5-2.4,2.5-4.1,2.5h-16c-1.7,0-3.3-1-4.1-2.5l-48.6-95.5
				c-0.8-1.6-0.8-3.5,0.1-5.1l5.2-9c1-1.7,2.9-2.8,4.9-2.8h4.7c1.2,0,2.4,0.7,2.9,1.8l40.8,81.2c0.6,1.2,2,1.6,3.1,1
				c0.4-0.2,0.8-0.6,1-1L626,35.6c0.5-1.1,1.7-1.8,2.9-1.8h4.7c2,0,3.9,1.1,4.9,2.8l5.2,9C644.6,47.2,644.6,49.1,643.7,50.7"/>
		</g>
	</g>
	<g id="Group-6">
		<g>
			<path id="Fill-4" class="st1" d="M404.4,50.7l-48.7,95.5c-0.8,1.5-2.4,2.5-4.1,2.5h-16c-1.7,0-3.3-1-4.1-2.5l-48.6-95.5
				c-0.8-1.6-0.8-3.5,0.1-5.1l5.2-9c1-1.7,2.9-2.8,4.9-2.8h4.7c1.2,0,2.4,0.7,2.9,1.8l40.9,81.2c0.6,1.2,2,1.6,3.1,1
				c0.4-0.2,0.8-0.6,1-1l40.9-81.2c0.5-1.1,1.7-1.8,2.9-1.8h4.7c2,0,3.8,1.1,4.8,2.8l5.2,9C405.1,47.2,405.1,49.1,404.4,50.7"/>
		</g>
	</g>
	<g id="Group-9">
		<g>
			<path id="Fill-7" class="st1" d="M473.6,35.2c-0.9-0.9-2.1-1.3-3.4-1.3h-7.5c-2.1,0-4,1.1-5,2.8l-5.3,9c-0.5,0.8-0.7,1.8-0.7,2.7
				V144c0,2.6,2.1,4.7,4.8,4.7h13.8c2.6,0,4.8-2.1,4.8-4.6V38.6c0-1.2-0.5-2.4-1.4-3.3"/>
		</g>
	</g>
	<path id="Fill-10" class="st1" d="M698,36.6c1-1.7,2.8-2.8,4.8-2.8H772c2,0,3.8,1.1,4.8,2.8l4.9,8.4c0.7,1.2,1.1,2.6,1.1,4v2.1
		c0,1.7-1.4,3.1-3.2,3.1h-63c-1.3,0-2.3,1-2.3,2.3v22c0,1.3,1,2.3,2.3,2.3h42.8c2.1,0,3.8,1.7,3.8,3.8v12.6c0,2.1-1.7,3.8-3.8,3.8
		h-42.8c-1.3,0-2.3,1-2.3,2.3l0,0v22.6c0,1.3,1,2.3,2.3,2.3h63.1c1.7,0,3.1,1.4,3.2,3.1l0,0v2.1c0,1.4-0.4,2.8-1.1,4l-4.9,8.4
		c-1,1.7-2.8,2.8-4.7,2.7h-69.2c-2,0-3.8-1.1-4.8-2.8l-4.8-8.4c-0.7-1.2-1.1-2.6-1.1-4V49c0-1.4,0.4-2.8,1.1-4L698,36.6L698,36.6z"
		/>
	<g id="Group-14">
		<g>
			<path id="Fill-12" class="st1" d="M1112.8,36.6c1-1.7,2.8-2.8,4.8-2.8h69.2c1.9,0,3.8,1,4.7,2.7l4.9,8.4c0.7,1.2,1.1,2.6,1.1,4
				V51c0,1.7-1.4,3.2-3.1,3.2h-63.1c-1.3,0-2.3,1-2.3,2.3v22c0,1.3,1,2.3,2.3,2.3h42.8c2.1,0,3.8,1.7,3.8,3.8v12.6
				c0,2.1-1.7,3.8-3.8,3.8h-42.7c-1.3,0-2.3,1-2.3,2.3l0,0V126c0,1.3,1,2.3,2.3,2.3h63.1c1.7,0,3.1,1.4,3.1,3.1l0,0v2.1
				c0,1.4-0.4,2.8-1.1,4l-4.9,8.4c-1,1.7-2.8,2.7-4.7,2.7h-69.1c-2,0-3.8-1.1-4.8-2.8l-4.8-8.4c-0.7-1.2-1.1-2.6-1.1-4V48.9
				c0-1.4,0.4-2.8,1.1-4L1112.8,36.6L1112.8,36.6z"/>
		</g>
	</g>
	<path id="Fill-15" class="st1" d="M851.2,54.1h42.5c7.3,0,10.7,4.9,10.7,12.8c0,9.3-3.4,14-10.7,14h-42.5L851.2,54.1L851.2,54.1z
		 M924.2,131.9l-16.9-33.3c9.9-4.7,17.5-14.9,17.5-31.5c0-12.6-5-20.2-9.1-24.3c-6-5.7-13.9-8.9-22.2-8.9h-54.3c-2,0-3.9,1-4.9,2.7
		l-5.2,9c-0.5,0.8-0.7,1.7-0.7,2.6V144c0,2.6,2.1,4.7,4.7,4.7h13.4c2.6,0,4.6-2.1,4.6-4.6v-42.6h32.3l22.9,45.5
		c0.5,1.1,1.7,1.8,2.9,1.8h4.7c2,0,3.9-1.1,4.9-2.8l5.3-9C925,135.4,925,133.5,924.2,131.9L924.2,131.9L924.2,131.9z"/>
	<path id="Fill-17" class="st1" d="M1002,55.1h50.6c1.7,0,3.1-1.3,3.2-3v-2.1c0-1.4-0.4-2.8-1.1-4l-4.9-8.4c-1-1.7-2.8-2.8-4.8-2.8
		h-43c-19.6,0-30.5,15.9-30.5,33.5v0.2c0,18.8,12.1,33.5,30.5,33.5h27.7c8.6,0,10.1,7.5,10.1,13.1v0.2c0,5.6-1.3,13.1-10.1,13.1
		h-50.6c-1.7-0.1-3.1,1.2-3.2,2.9c0,0,0,0.1,0,0.1v2.1c0,1.4,0.4,2.8,1.1,4l4.9,8.5c1,1.7,2.8,2.8,4.8,2.8h43
		c18.4,0,30.4-14.7,30.4-33.5V115c0-17.6-10.8-33.5-30.4-33.5H1002c-8.8,0-10.2-7.5-10.2-13.1v-0.2C991.9,62.6,993.4,55.1,1002,55.1
		"/>
</g>
<linearGradient id="SVGID_1_" gradientUnits="userSpaceOnUse" x1="-1844.4739" y1="1890.8496" x2="-1623.2782" y2="1902.8999" gradientTransform="matrix(1 0 0 1 1846.72 -1804.3547)">
	<stop  offset="5.000000e-02" style="stop-color:#4FD8F5"/>
	<stop  offset="0.25" style="stop-color:#01B0E0"/>
	<stop  offset="0.6" style="stop-color:#415FF8"/>
	<stop  offset="1" style="stop-color:#C761D6"/>
</linearGradient>
<path class="st2" d="M221.3,122.2c-6.8-39.5-26-76.9-54.1-105.2l-0.4-0.4c-2-2-4.1-4.1-6.3-6c-6.9-5.9-14.4-8.4-19.5-9.4
	C138.5,0.7,130.4,0,119.9,0H89C77.1,0.1,66.1,4.8,57.9,13.1c-12.8,12.6-24,27.1-33.2,43c-9.2,16-16.2,33.1-21,51l-0.1,0.5
	c-1.1,4.1-2.3,8.8-2.9,13.1C-1.1,131,0.6,142,5.6,151.6c5,9.7,12.7,17.2,21.9,21.4c14,5.7,33.7,9.6,55.3,11.1
	c0.7,0.1,13,0.9,25.1,0.9h0.3c11.7,0,23.1-0.8,23.2-0.8h0.2c16.7-0.6,40.6-3.4,57.8-9.4c12-4.3,21.7-13,27.2-24.6
	c2.1-4.3,3.6-8.9,4.4-13.6C221.9,131.9,222,127,221.3,122.2L221.3,122.2z M17.4,156.3c-3.8-3.9-6.8-8.9-8.6-14c-2.4-6.6-3.1-14-2-21
	c0.7-4.4,1.7-8.7,2.8-13c4.3-17.2,11.1-33.9,20.2-49.5c7.3-12.6,16.1-24.3,26-35C65.1,13.7,73,6.6,85.3,5.6c0.1,0,1.8-0.1,1.8-0.1
	s-3.9,1.3-4.7,1.8c-4.7,2.7-8.4,6.2-12.2,10c-2.5,2.5-2.6,2.6-0.1,0.1c-11,11.5-20.7,24.3-28.8,38.3c-9.4,16.1-16.5,33.2-21.2,51
	c-4,13.6-5.7,27.4-0.1,40.9c3.5,8.4,12,16.4,19.1,21.4C30.2,166.9,24.6,163.6,17.4,156.3L17.4,156.3z M35.9,156.1l-0.2-0.2
	c-9-9.5-12.9-23.5-10.3-36.7c0.1-0.4,0.2-1.1,0.4-1.9l0.1-0.7c0.3-1.5,0.7-3.2,0.8-4.1c4.1-18.2,10.8-35.6,19.8-52
	C53.6,48,62,36.1,71.7,25.4c4.4-4.9,8.9-9.7,14.5-13.1c2.9-1.8,6.1-3.4,9.4-4.2c2.3-0.5,4.8-0.3,4.8-0.3c-4.4,3-9.3,7.2-12.9,11
	c-3.8,3.9-7.3,8.1-10.7,12.3c-6.8,8.6-13,17.7-18.4,27.3c-0.1,0.3-0.3,0.6-0.5,0.9C48.1,77,41,95.8,36.8,115.3
	c-2.7,10-2.2,20.5,1.4,30.3c1.7,4.7,4.1,9.1,7.1,13c2.4,3.1,6.3,5.9,9.3,8.3C48.9,165.1,41.2,162.1,35.9,156.1L35.9,156.1z
	 M120.3,174.2c-5.1,0.4-13.9,0.6-18.3,0.1c-13.8-1.7-16.6-2.4-30.1-7.2c-9-3.2-16.9-9.3-21.9-18.1c-5.1-8.9-6.8-19.2-4.8-29
	c0.2-1,0.4-2.1,0.7-3.1c0.5-2.7,1.1-5.5,1.8-7.8c4.2-17.3,10.9-34,19.8-49.6c8.8-15.4,19.6-29.5,32.1-41.8c2.2-2.2,3.9-4.1,6.4-5.5
	c2.9-2.1,4.6-0.8,6.1-0.1c2.2,1,4.4,2.8,6.5,4.6c9.3,8.9,17.8,18.9,25.3,29.9c7.4,10.8,13.7,22.5,19,34.8c5.2,12,9.2,25.3,12,39.2
	l0.2,1.1c1.4,9,0.1,18.1-4.3,26.3c-3.6,6.8-9.1,12.5-15.4,16.1c-2.7,1.7-10.5,5.3-13.3,6.1C133.2,172.8,129.5,173.4,120.3,174.2
	L120.3,174.2z M163.7,167.7c5.3-4.3,9.8-9.4,12.9-15.5c5.4-10.3,7.3-21.1,4.3-34.7c-3.1-14.1-7.2-27.6-12.5-40
	c-4.1-9.8-9.2-19.5-15.1-28.7c-5.7-9-12.2-17.6-19.4-25.6c-4.8-5.4-9.8-10.9-15.8-15.1c-1.5-1.1-3.1-1.9-4.9-2.6
	c9.5,0,16.3,4,22,9.5c7.6,7.5,14.8,15.7,21.2,24.2c10.2,13.5,18.6,28,24.1,42.1l1.1,2.9c7.6,19.1,16.9,42.8,7.8,62.1
	c-0.1,0.1-0.1,0.2-0.1,0.2c-7.4,17.3-24.9,27.6-39.2,29.2C150.7,175.6,158.5,171.9,163.7,167.7L163.7,167.7z M207.5,147.3
	C197,165.9,181.2,170,181.2,170c8.8-6.3,14.1-15.1,17.4-24.1c2.8-7.6,3.7-15.8,2.7-23.4c-4.4-33.9-21.9-70.1-48-99.1
	c-3.8-4.3-8.1-8.8-12.7-12.7c-2.5-2.1-4.6-3.9-7.6-5.3c0,0,13,1.5,22.6,10.8c5,4.9,10,10.5,14.6,16c12.1,14.8,22,31.3,29.5,49.1
	c4.5,10.7,8.2,22.2,10.9,34.3C213.2,126.3,212.8,138,207.5,147.3L207.5,147.3z"/>
</svg>
